<svg xmlns="http://www.w3.org/2000/svg" version="1.1" xmlns:xlink="http://www.w3.org/1999/xlink" xmlns:svgjs="http://svgjs.dev/svgjs" width="2000" height="1500" viewBox="0 0 2000 1500"><rect width="2000" height="1500" fill="#ffffff"></rect><g transform="matrix(0.75,0,0,0.75,250.37108013937268,286.4259597457627)"><svg viewBox="0 0 287 177" data-background-color="#ffffff" preserveAspectRatio="xMidYMid meet" height="1233" width="2000" xmlns="http://www.w3.org/2000/svg" xmlns:xlink="http://www.w3.org/1999/xlink"><g id="tight-bounds" transform="matrix(1,0,0,1,-0.07099999999996953,0.2295000000000016)"><svg viewBox="0 0 287.1419166287002 176.54093470677634" height="176.54093470677634" width="287.1419166287002"><g><svg viewBox="0 0 287.1419166287002 176.54093470677634" height="176.54093470677634" width="287.1419166287002"><g><svg viewBox="0 0 287.1419166287002 176.54093470677634" height="176.54093470677634" width="287.1419166287002"><g><path d="M0 176.541v-176.541h287.142v176.541z" fill="#010c80" stroke="transparent" stroke-width="0" rx="0%" data-fill-palette-color="tertiary"></path><path d="M3.283 173.258v-169.975h280.576v169.975z" fill="#ffffff" stroke="transparent" stroke-width="0" rx="0%" data-fill-palette-color="quaternary"></path><path d="M9.85 166.691v-156.841h267.442v156.841z" fill="#010c80" stroke="transparent" stroke-width="0" data-fill-palette-color="tertiary"></path></g><g transform="matrix(1,0,0,1,19.69974,19.69974)" id="textblocktransform"><svg viewBox="0 0 247.7424366287002 137.14145470677633" height="137.14145470677633" width="247.7424366287002" id="textblock"><g><svg viewBox="0 0 247.7424366287002 100.57561757280003" height="100.57561757280003" width="247.7424366287002"><g transform="matrix(1,0,0,1,0,0)"><svg width="247.7424366287002" viewBox="1.0499999523162842 -35.54999923706055 88.78999328613281 36.04999923706055" height="100.57561757280003" data-palette-color="#ffffff"><path d="M1.05-33.9L1.05-35 27.05-35 27.55-24.6 26.65-24.6Q24.8-30 22.38-31.95 19.95-33.9 15.15-33.9L15.15-33.9 13.75-33.9 13.75-17.65 16-17.65Q18.4-17.65 20-19.4 21.6-21.15 22.2-24.2L22.2-24.2 22.95-24.2 22.95-9.4 22.1-9.4Q21.3-13.15 19.88-14.75 18.45-16.35 16-16.35L16-16.35 13.75-16.35 13.75-1.1 19.95-1.1 19.95 0 1.05 0 1.05-1.1 4-1.1 4-33.9 1.05-33.9ZM43.85-0.55L43.85-0.55Q46.35-0.55 48.27-1.9 50.2-3.25 50.2-5.98 50.2-8.7 48.12-10.15 46.05-11.6 42.22-12.68 38.4-13.75 36.67-14.55 34.95-15.35 33.4-16.65L33.4-16.65Q30.3-19.25 30.3-24.7L30.3-24.7Q30.3-29.15 33.47-32.35 36.65-35.55 42.15-35.55L42.15-35.55Q44.8-35.55 47.67-34.77 50.55-34 51.25-34 51.95-34 52.5-35L52.5-35 53.05-35 53.4-24.9 52.6-24.9Q50.2-29.25 47.57-31.88 44.95-34.5 41.87-34.5 38.8-34.5 37.1-33.08 35.4-31.65 35.4-29.28 35.4-26.9 37.42-25.63 39.45-24.35 42.4-23.55 45.35-22.75 46.27-22.45 47.2-22.15 48.57-21.63 49.95-21.1 50.82-20.53 51.7-19.95 52.67-19.07 53.65-18.2 54.2-17.15L54.2-17.15Q55.55-14.75 55.55-11.45L55.55-11.45Q55.55-6.05 52.17-2.78 48.8 0.5 43.3 0.5L43.3 0.5Q40.45 0.5 36.77-0.25 33.1-1 32.7-1L32.7-1Q32-1 31.35 0.5L31.35 0.5 30.65 0.5 30.15-11.4 31-11.4Q33.2-7.05 36.62-3.8 40.05-0.55 43.85-0.55ZM89.84-34.05L87.09-34.05 87.09 0 80.09 0 62.95-32.35 62.95-0.95 65.69-0.95 65.69 0 58.84 0 58.84-0.95 61.59-0.95 61.59-34.05 58.84-34.05 58.84-35 72.64-35 85.75-9.9 85.75-34.05 83-34.05 83-35 89.84-35 89.84-34.05Z" opacity="1" transform="matrix(1,0,0,1,0,0)" fill="#ffffff" class="wordmark-text-0" data-fill-palette-color="quaternary" id="text-0"></path></svg></g></svg></g><g transform="matrix(1,0,0,1,0,107.14219757280003)"><svg viewBox="0 0 247.7424366287002 29.999257133976293" height="29.999257133976293" width="247.7424366287002"><g transform="matrix(1,0,0,1,0,0)"><svg width="247.7424366287002" viewBox="1.9000000953674316 -43.349998474121094 361.260009765625 43.75" height="29.999257133976293" data-palette-color="#ffffff"><path d="M19.65 0L1.9 0 1.9-42.95 19.1-42.95 19.1-34.65 10.65-34.65 10.65-26.3 18.75-26.3 18.75-18.2 10.65-18.2 10.65-8.35 19.65-8.35 19.65 0ZM30.9 0L22.5 0 22.5-42.95 31.35-42.95 35.3-22.4 35.3-42.95 43.6-42.95 43.6 0 35.2 0 30.9-21.5 30.9 0ZM56.95 0.4Q54 0.4 51.6-0.75 49.2-1.9 47.82-4.13 46.45-6.35 46.45-9.5L46.45-9.5 46.45-20.25 54.9-20.25 54.9-10Q54.9-8.85 55.37-8.18 55.85-7.5 56.85-7.5L56.85-7.5Q57.8-7.5 58.27-8.13 58.75-8.75 58.75-9.9L58.75-9.9 58.75-42.95 67.4-42.95 67.4-10.75Q67.4-7.4 66.07-4.88 64.75-2.35 62.37-0.98 60 0.4 56.95 0.4L56.95 0.4ZM80.94 0.4Q75.74 0.4 73.04-2.78 70.34-5.95 70.34-11.7L70.34-11.7 70.34-32.15Q70.34-37.7 73.04-40.53 75.74-43.35 80.94-43.35L80.94-43.35Q86.14-43.35 88.84-40.53 91.54-37.7 91.54-32.15L91.54-32.15 91.54-11.7Q91.54-5.9 88.84-2.75 86.14 0.4 80.94 0.4L80.94 0.4ZM80.94-7.5Q82.09-7.5 82.49-8.5 82.89-9.5 82.89-11.3L82.89-11.3 82.89-32.3Q82.89-33.7 82.52-34.58 82.14-35.45 80.99-35.45L80.99-35.45Q78.84-35.45 78.84-32.2L78.84-32.2 78.84-11.25Q78.84-9.4 79.29-8.45 79.74-7.5 80.94-7.5L80.94-7.5ZM108.29 0L100.19 0 100.19-14.15 93.34-42.95 101.84-42.95 104.24-28.4 106.64-42.95 115.14-42.95 108.29-14.15 108.29 0ZM142.28 0L134.19 0 134.19-14.15 127.34-42.95 135.84-42.95 138.24-28.4 140.64-42.95 149.14-42.95 142.28-14.15 142.28 0ZM161.53 0.4Q156.33 0.4 153.63-2.78 150.93-5.95 150.93-11.7L150.93-11.7 150.93-32.15Q150.93-37.7 153.63-40.53 156.33-43.35 161.53-43.35L161.53-43.35Q166.73-43.35 169.43-40.53 172.13-37.7 172.13-32.15L172.13-32.15 172.13-11.7Q172.13-5.9 169.43-2.75 166.73 0.4 161.53 0.4L161.53 0.4ZM161.53-7.5Q162.68-7.5 163.08-8.5 163.48-9.5 163.48-11.3L163.48-11.3 163.48-32.3Q163.48-33.7 163.11-34.58 162.73-35.45 161.58-35.45L161.58-35.45Q159.43-35.45 159.43-32.2L159.43-32.2 159.43-11.25Q159.43-9.4 159.88-8.45 160.33-7.5 161.53-7.5L161.53-7.5ZM185.53 0.4Q180.23 0.4 177.66-2.6 175.08-5.6 175.08-11.5L175.08-11.5 175.08-42.95 183.43-42.95 183.43-11.85Q183.43-9.8 183.83-8.65 184.23-7.5 185.53-7.5L185.53-7.5Q186.83-7.5 187.23-8.63 187.63-9.75 187.63-11.85L187.63-11.85 187.63-42.95 195.98-42.95 195.98-11.5Q195.98-5.6 193.41-2.6 190.83 0.4 185.53 0.4L185.53 0.4ZM199.28 0L199.28-42.95 212.48-42.95Q215.63-42.95 217.35-41.53 219.08-40.1 219.68-37.52 220.28-34.95 220.28-30.95L220.28-30.95Q220.28-27.3 219.33-25.25 218.38-23.2 216.03-22.4L216.03-22.4Q217.98-22 218.85-20.45 219.73-18.9 219.73-16.25L219.73-16.25 219.63 0 211.23 0 211.23-16.8Q211.23-18.6 210.53-19.1 209.83-19.6 207.98-19.6L207.98-19.6 207.98 0 199.28 0ZM208.03-27.05L210.08-27.05Q211.88-27.05 211.88-30.95L211.88-30.95Q211.88-32.65 211.73-33.5 211.58-34.35 211.18-34.68 210.78-35 210.03-35L210.03-35 208.03-35 208.03-27.05ZM247.12 0L238.52 0 238.52-34.7 233.42-34.7 233.42-42.95 252.22-42.95 252.22-34.7 247.12-34.7 247.12 0ZM254.62 0L254.62-42.95 267.82-42.95Q270.97-42.95 272.7-41.53 274.42-40.1 275.02-37.52 275.62-34.95 275.62-30.95L275.62-30.95Q275.62-27.3 274.67-25.25 273.72-23.2 271.37-22.4L271.37-22.4Q273.32-22 274.2-20.45 275.07-18.9 275.07-16.25L275.07-16.25 274.97 0 266.57 0 266.57-16.8Q266.57-18.6 265.87-19.1 265.17-19.6 263.32-19.6L263.32-19.6 263.32 0 254.62 0ZM263.37-27.05L265.42-27.05Q267.22-27.05 267.22-30.95L267.22-30.95Q267.22-32.65 267.07-33.5 266.92-34.35 266.52-34.68 266.12-35 265.37-35L265.37-35 263.37-35 263.37-27.05ZM285.67 0L277.32 0 281.47-42.95 296.02-42.95 300.12 0 291.97 0 291.37-6.95 286.17-6.95 285.67 0ZM288.42-35.65L286.82-13.8 290.72-13.8 288.82-35.65 288.42-35.65ZM317.37 0L305.62 0 300.32-43 308.52-43 311.67-13.75 314.47-43 322.67-43 317.37 0ZM342.86 0L325.11 0 325.11-42.95 342.31-42.95 342.31-34.65 333.86-34.65 333.86-26.3 341.96-26.3 341.96-18.2 333.86-18.2 333.86-8.35 342.86-8.35 342.86 0ZM363.16 0L345.71 0 345.71-42.95 354.31-42.95 354.31-7.3 363.16-7.3 363.16 0Z" opacity="1" transform="matrix(1,0,0,1,0,0)" fill="#ffffff" class="slogan-text-1" data-fill-palette-color="quaternary" id="text-1"></path></svg></g></svg></g></svg></g></svg></g><g></g></svg></g><defs></defs></svg><rect width="287.1419166287002" height="176.54093470677634" fill="none" stroke="none" visibility="hidden"></rect></g></svg></g></svg>