<svg width="32" height="32" viewBox="0 0 32 32" fill="none" xmlns="http://www.w3.org/2000/svg">
<g id="Frame">
<path id="Vector" d="M15.9714 9.3999C12.3143 9.3999 9.34283 12.3713 9.34283 16.0285C9.34283 19.6856 12.3143 22.657 15.9714 22.657C19.6285 22.657 22.6 19.6856 22.6 16.0285C22.6 12.3713 19.6285 9.3999 15.9714 9.3999ZM15.9714 19.8285C13.8571 19.8285 12.1714 18.1142 12.1714 16.0285C12.1428 13.9142 13.8857 12.2285 15.9714 12.2285C18.0571 12.2285 19.7714 13.9428 19.7714 16.0285C19.8 18.1428 18.0857 19.8285 15.9714 19.8285Z" fill="black"/>
<path id="Vector_2" d="M22.7714 7.65723C21.9142 7.65723 21.2285 8.37151 21.2285 9.20008C21.2285 10.0287 21.9428 10.7429 22.7714 10.7429C23.6285 10.7429 24.3142 10.0287 24.3142 9.20008C24.3142 8.37151 23.6285 7.65723 22.7714 7.65723Z" fill="black"/>
<path id="Vector_3" d="M22.3428 3.14307H9.57141C5.99998 3.14307 3.08569 6.08592 3.08569 9.62878V22.4002C3.08569 26.0002 5.99998 28.9145 9.57141 28.9145H22.3428C25.9428 28.9145 28.8286 26.0002 28.8286 22.4288V9.62878C28.8 6.02878 25.8857 3.14307 22.3428 3.14307ZM26 22.4002C26 24.4288 24.3428 26.0574 22.3428 26.0574H9.57141C7.54284 26.0574 5.91427 24.4002 5.91427 22.4002V9.62878C5.91427 7.60021 7.57141 5.97164 9.57141 5.97164H22.3428C24.3714 5.97164 26 7.62878 26 9.62878V22.4002Z" fill="black"/>
</g>
</svg>
